<svg xmlns="http://www.w3.org/2000/svg" xmlns:xlink="http://www.w3.org/1999/xlink" viewBox="0 0 478.33 251.75"><defs><style>.a{filter:url(#a);}.b{fill:none;}.c{fill:#fff;}</style><filter id="a" name="AI_GaussianBlur_4"><feGaussianBlur stdDeviation="4"/></filter></defs><title>tjs_logo_a9_shadow</title><g class="a"><path d="M173.38,209.1,248,391.57h-2l75.36-184.21,9.26,4L248,392.43a1.08,1.08,0,0,1-1.44.54,1.05,1.05,0,0,1-.54-.54L164.13,213.11Z" transform="translate(-7.61 -141.32)"/></g><g class="a"><path class="b" d="M326,211" transform="translate(-7.61 -141.32)"/></g><g class="a"><path class="b" d="M169,211" transform="translate(-7.61 -141.32)"/></g><path class="a" d="M157.78,167.18A184.44,184.44,0,0,1,205.61,152a222.1,222.1,0,0,1,24.88-3.07,240.06,240.06,0,0,1,25-.4l3.13.07,1.56,0,1.56.11,6.25.47c4.17.21,8.31.88,12.46,1.35,2.08.22,4.13.62,6.2,1l6.18,1.08L299,154l3.07.69,3,.83a166.11,166.11,0,0,1,23.82,8.16c2,.79,3.85,1.71,5.76,2.62s3.77,1.9,5.65,2.87c.94.48,1.85,1,2.77,1.56s1.85,1.06,2.75,1.64,1.82,1.13,2.71,1.75c.45.31.89.59,1.35.93s.87.62,1.4,1h0l.14.11a3.44,3.44,0,0,1,.94,4.21l-16.85,34h0a1.79,1.79,0,0,1-2.35.83,114.53,114.53,0,0,0-20.61-6.93A205.89,205.89,0,0,0,291,204.1a318.05,318.05,0,0,0-43.86-2.92l-11,.13c-3.67.17-7.33.3-11,.51-7.31.54-14.62,1.18-21.86,2.25a191,191,0,0,0-21.51,4.21l-5.27,1.44c-1.73.56-3.49,1.05-5.2,1.67l-2.56.91-2.53,1c-1.64.69-3.38,1.42-4.83,2.21l-.13.07-.08,0-.26.1h0a1.75,1.75,0,0,1-2.22-.84l0,0-17.05-34.47h0a3.47,3.47,0,0,1,1-4.28l.12-.08c.7-.53,1.26-.92,1.89-1.34s1.22-.81,1.83-1.2c1.23-.78,2.47-1.53,3.71-2.25Q153.94,169.07,157.78,167.18Zm3.23,6.58c-2.43,1.2-4.82,2.47-7.15,3.81-1.17.67-2.32,1.36-3.44,2.07-.56.36-1.12.72-1.66,1.09s-1.11.77-1.52,1.07l1.13-4.35h0l13.44,36-2.24-.89h0l.26-.12-.21.11A67.26,67.26,0,0,1,170,207.72c1.75-.71,3.54-1.28,5.3-1.93l5.37-1.69a188.1,188.1,0,0,1,21.92-4.84,281.4,281.4,0,0,1,44.6-3.41c3.73,0,7.45.08,11.18.21l5.59.27,2.79.14,2.79.22,5.58.43,5.57.59c1.86.19,3.71.4,5.56.68s3.7.52,5.54.82A208.49,208.49,0,0,1,313.69,204c3.61,1,7.17,2.21,10.69,3.52a77.55,77.55,0,0,1,10.36,4.63l-2.35.84h0l13.24-35.56,1.07,4.31h0c-.28-.23-.71-.53-1.08-.8s-.8-.54-1.19-.82c-.8-.55-1.64-1.07-2.48-1.59s-1.68-1-2.54-1.52-1.71-1-2.6-1.46c-1.78-.92-3.51-1.89-5.34-2.72s-3.61-1.73-5.47-2.48a158.15,158.15,0,0,0-22.81-7.82l-2.92-.8-2.95-.66-5.91-1.32-6-1c-2-.34-4-.73-6-.93-4-.46-8-1.11-12.06-1.32l-6-.45-1.52-.11-1.51,0-3-.07a231.54,231.54,0,0,0-24.29.39,215.81,215.81,0,0,0-24.07,3A177.4,177.4,0,0,0,161,173.76Z" transform="translate(-7.61 -141.32)"/><g class="a"><path d="M187,249a13.84,13.84,0,0,1-4.54-3.7q-1.92-2.1-4-4a33.57,33.57,0,0,0-8.94-6c-1.67-.75-3.39-1.47-5.14-2.14a32.78,32.78,0,0,0-5.1-1.61,51.45,51.45,0,0,0-11-1c-1.94,0-3.89-.18-5.84-.35s-3.91-.31-5.84-.65-3.78-.65-5.69-1.08a55.65,55.65,0,0,1-5.62-1.6c-7.32-2.51-14.35-5.52-21.43-8.46a135.86,135.86,0,0,1-20.18-11.31c-6.44-4.21-12.67-8.7-18.79-13.34-3.05-2.32-6.1-4.66-9.11-7a102.19,102.19,0,0,1-8.79-7.63,71.6,71.6,0,0,1-7.72-8.83,86.94,86.94,0,0,1-6.16-10,17.06,17.06,0,0,0-1.42-2.15,3.27,3.27,0,0,0-1.38-1.09,4.34,4.34,0,0,0-1.83-.19c-.9,0-1.83.11-2.72.2a15.73,15.73,0,0,0-4.73,1.11,7.89,7.89,0,0,0-1.82,1.12,9.53,9.53,0,0,0-1.6,1.58,21.16,21.16,0,0,0-1.48,2A15.43,15.43,0,0,0,15,165a18.39,18.39,0,0,0-1.3,4.64A32.91,32.91,0,0,0,14.17,180a47.33,47.33,0,0,0,3.26,10.4A37.81,37.81,0,0,0,20,195.2a19.46,19.46,0,0,0,1.58,2.17c.28.35.58.66.88,1l1,1c5.44,5.15,12,9,18.8,12.49s13.79,6.53,20.8,9.6,14,6.19,21,9.34l20.84,9.63c3.46,1.59,7,3.28,10.39,4.67,3.6,1.29,7.16,2.87,10.66,4.39a1.16,1.16,0,0,1-.89,2.15h0c-3.57-1.43-7-2.86-10.68-4-3.7-1.43-7.12-3-10.64-4.57l-20.91-9.49c-6.94-3.23-13.91-6.36-20.84-9.63s-13.88-6.5-20.73-10c-3.42-1.77-6.82-3.58-10.13-5.6a87.12,87.12,0,0,1-9.55-6.74l-1.14-.93c-.4-.34-.78-.7-1.14-1.07-.72-.74-1.39-1.5-2-2.28a40.31,40.31,0,0,1-3.41-4.95,48.16,48.16,0,0,1-4.83-11,35.5,35.5,0,0,1-1.21-6,27,27,0,0,1,0-6.35,20.7,20.7,0,0,1,1.74-6.38c.26-.51.5-1,.79-1.52s.6-1,.9-1.42.6-.86,1-1.28.69-.84,1.08-1.25A14.19,14.19,0,0,1,19.05,153a19.36,19.36,0,0,1,6.5-1c1,0,2,0,3,.07a8.61,8.61,0,0,1,3.75.92,7.75,7.75,0,0,1,2.86,2.68,20.78,20.78,0,0,1,1.49,2.8c.83,1.78,1.59,3.46,2.45,5.12A52.45,52.45,0,0,0,42,168.39,65.13,65.13,0,0,0,49.19,177a100.89,100.89,0,0,0,8.39,7.6c3,2.42,5.92,4.83,8.93,7.17,6,4.69,12.16,9.23,18.48,13.48a131.08,131.08,0,0,0,19.78,11.2c7,2.95,14.09,6,21.24,8.47a55.58,55.58,0,0,0,5.42,1.56c1.82.42,3.71.75,5.58,1.08a34.68,34.68,0,0,0,5.57.54c1.88,0,3.75-.26,5.64-.44,3.76-.35,7.75-1,11.91-.28a26.76,26.76,0,0,1,5.84,1.83c1.8.74,3.62,1.48,5.39,2.41a32.15,32.15,0,0,1,5.14,3.24,34.59,34.59,0,0,1,4.38,4.16c1.28,1.51,2.49,3.06,3.61,4.64A11.94,11.94,0,0,1,187,249Z" transform="translate(-7.61 -141.32)"/></g><g class="a"><path d="M64.5,197.5q9,6.76,18,13.37T101,223.58a171.81,171.81,0,0,0,19.2,11.35,63.58,63.58,0,0,0,10.26,3.93,51.5,51.5,0,0,0,5.32,1.16c1.84.29,3.67.58,5.52.8l5.59.67c1.88.23,3.77.45,5.67.76s3.8.73,5.69,1.23a40.06,40.06,0,0,1,5.56,2,48.45,48.45,0,0,1,18.41,14.36c4.9,6.19,8,13.4,10.4,20.58.61,1.8,1.16,3.61,1.7,5.42s1,3.63,1.48,5.45l2.8,10.88a.59.59,0,0,1-1.12.36v0c-1.35-3.5-2.57-7.05-3.84-10.57l-1.94-5.26c-.65-1.75-1.3-3.49-2-5.2a71.23,71.23,0,0,0-10.82-19,43.8,43.8,0,0,0-7.83-7.26,54.36,54.36,0,0,0-9.27-5.26,81.46,81.46,0,0,0-21-6l-5.56-1c-1.89-.38-3.77-.85-5.61-1.41a65,65,0,0,1-10.57-4.43A173.11,173.11,0,0,1,100,225.11c-6.15-4.29-12.19-8.75-18.16-13.28S69.9,202.75,64,198.13a.39.39,0,0,1-.07-.56A.41.41,0,0,1,64.5,197.5Z" transform="translate(-7.61 -141.32)"/></g><g class="a"><path d="M129.87,240.23a6.53,6.53,0,0,0-2.7,3.41,8.81,8.81,0,0,0-.33,4.39,15.93,15.93,0,0,0,.46,2.22,14,14,0,0,0,.94,2.1,16.86,16.86,0,0,0,2.77,3.71,24.2,24.2,0,0,0,3.52,3,31.86,31.86,0,0,0,4,2.48,37.26,37.26,0,0,0,9,3.22c3.1.71,6.58,1.16,9.92,1.8s6.72,1.3,10,2,6.6,1.32,9.94,1.69,6.71.76,10.09,1.06l-.14,2.38c-3.41-.09-6.83-.18-10.26-.45s-6.88-.77-10.24-1.33-6.7-1-10.05-1.47-6.66-.76-10.23-1.44a40.75,40.75,0,0,1-10.16-3.49,22,22,0,0,1-11.23-11.77,18.76,18.76,0,0,1-.86-2.66,12.37,12.37,0,0,1-.49-2.78,11.34,11.34,0,0,1,1.13-5.6,8.11,8.11,0,0,1,4.09-3.93Z" transform="translate(-7.61 -141.32)"/></g><g class="a"><path d="M148.5,267.5c-.09.87-.28.89-.48.94l-.58.19-1.12.46a18,18,0,0,0-2,1.14,8.63,8.63,0,0,0-3,3.28,10.67,10.67,0,0,0-.86,2.06,10,10,0,0,0-.16,2.25,13.15,13.15,0,0,0,1.05,4.35,22.86,22.86,0,0,0,2.08,3.81,12.36,12.36,0,0,0,2.78,3.06c.27.22.56.38.83.58s.55.33.91.49a20.83,20.83,0,0,0,2.1.92,32,32,0,0,0,4.55,1.36,73.71,73.71,0,0,0,19.89,1.28c3.38-.22,6.78-.49,10.14-1s6.77-1,10.07-1.74l.58,2.2a139.46,139.46,0,0,1-20.45,4.21c-6.93.86-14,1.44-21.25.23a31.64,31.64,0,0,1-5.4-1.36,27.27,27.27,0,0,1-2.66-1.06c-.43-.19-.92-.49-1.37-.73s-.89-.56-1.3-.88a16.73,16.73,0,0,1-4.15-4.5,15,15,0,0,1-2-5.61,17.56,17.56,0,0,1,.13-5.88,16.74,16.74,0,0,1,.8-2.81l.49-1.38a7.37,7.37,0,0,1,.69-1.3,11.36,11.36,0,0,1,4.22-4,10.53,10.53,0,0,1,2.65-1c.46-.1.92-.17,1.38-.23l.68,0C147.94,266.77,148.17,266.71,148.5,267.5Z" transform="translate(-7.61 -141.32)"/></g><g class="a"><path d="M177.83,296.81a28.93,28.93,0,0,0-3.62,7.36,13.76,13.76,0,0,0-.8,3.87,12.8,12.8,0,0,0,.28,3.82,13,13,0,0,0,3.45,6.35,15.93,15.93,0,0,0,2.81,2.23,10.76,10.76,0,0,0,3.32,1.47,7.48,7.48,0,0,0,3.67,0,17.68,17.68,0,0,0,3.69-1.48,40.8,40.8,0,0,0,6.8-4.79c2.15-1.82,4.19-3.78,6.19-5.79s4-4,5.88-6.14l2,1.66c-1.84,2.29-3.75,4.46-5.75,6.59s-4.2,4-6.46,5.91A49.75,49.75,0,0,1,192,322.9a21.06,21.06,0,0,1-4.25,1.84,15.93,15.93,0,0,1-4.88.57,13.47,13.47,0,0,1-4.86-1.09,12.6,12.6,0,0,1-4.05-2.92,14.89,14.89,0,0,1-4-8.88,18.13,18.13,0,0,1,.19-4.78,31.59,31.59,0,0,1,1.23-4.49,28.63,28.63,0,0,1,4.79-7.62Z" transform="translate(-7.61 -141.32)"/></g><g class="a"><path d="M195.59,319.6a23.91,23.91,0,0,0,.59,4.45,10.3,10.3,0,0,0,1.54,3.95,5.8,5.8,0,0,0,2.74,2.23,5.41,5.41,0,0,0,.83.26c.34.06.68.17,1,.23a12.16,12.16,0,0,0,2,.23,7.91,7.91,0,0,0,3.63-.71,9.11,9.11,0,0,0,3.12-2.45,14.38,14.38,0,0,0,2.27-3.74,27.12,27.12,0,0,0,1.67-4.21l2.1.32a21.78,21.78,0,0,1-1,5,22.49,22.49,0,0,1-2.3,4.67,13.4,13.4,0,0,1-1.73,2.14,11,11,0,0,1-4.94,2.93,11.09,11.09,0,0,1-2.9.37,12.92,12.92,0,0,1-2.8-.31,13.43,13.43,0,0,1-1.32-.36,8.84,8.84,0,0,1-1.42-.58,9,9,0,0,1-4-4.35,18.91,18.91,0,0,1-1.4-5.16,21.43,21.43,0,0,1,.15-5.12Z" transform="translate(-7.61 -141.32)"/></g><g class="a"><path d="M41.9,212.86a30.18,30.18,0,0,0-.89,3.55,25.67,25.67,0,0,0-.38,3.67,19,19,0,0,0,1,7c1.52,4.49,5.33,8,9.8,10.4L55,239.24c1.19.57,2.46,1.06,3.68,1.59,2.44,1.08,5,2,7.51,3l7.62,2.77,7.7,2.64c10.28,3.45,20.65,6.69,31,9.85,5.21,1.56,10.4,3.15,15.63,4.63l15.55,4.92-.48,1.78c-5.32-1.21-10.6-2.52-15.89-3.82l-15.72-4.4c-10.47-3-20.92-6-31.32-9.32l-7.79-2.52-7.76-2.65c-2.57-1-5.16-1.83-7.71-2.9-1.28-.53-2.56-1-3.84-1.58l-3.82-1.78a29.56,29.56,0,0,1-7.17-5.09,22.25,22.25,0,0,1-2.92-3.48,19.75,19.75,0,0,1-2.14-4.07,19.54,19.54,0,0,1-1.17-9,22.92,22.92,0,0,1,.91-4.37,18.41,18.41,0,0,1,.76-2.08,18,18,0,0,1,1-2.06Z" transform="translate(-7.61 -141.32)"/></g><g class="a"><path d="M83.22,251.21a14,14,0,0,0-2,4.12,7.85,7.85,0,0,0-.2,4.14,6.75,6.75,0,0,0,1.82,3,17.34,17.34,0,0,0,2.78,2.43,44.9,44.9,0,0,0,7.85,3.91l2.11.85,2.17.78c1.43.53,2.91,1,4.38,1.46,5.91,1.85,11.94,3.5,18,4.85,3.05.67,6.11,1.37,9.2,1.88s6.22.79,9.31,1.1l-.44,3.52c-3.15-.5-6.24-1.06-9.35-1.65-1.55-.3-3.13-.45-4.69-.69s-3.13-.45-4.69-.71c-6.24-1-12.5-2.08-18.7-3.64-1.55-.38-3.11-.78-4.65-1.25l-2.32-.68c-.77-.25-1.53-.53-2.3-.81-1.54-.51-3-1.19-4.57-1.85a23,23,0,0,1-2.26-1.16l-1.12-.63a8.48,8.48,0,0,1-1.12-.69,11.9,11.9,0,0,1-4-4,10,10,0,0,1-1.17-5.8c.35-3.78,1.84-6.68,2.44-9.87Z" transform="translate(-7.61 -141.32)"/></g><g class="a"><path d="M103.73,275l0,1c0,.37.06.73.1,1.1a14.82,14.82,0,0,0,.41,2.19,15.36,15.36,0,0,0,1.64,4.1,17,17,0,0,0,6.4,6.34,39.25,39.25,0,0,0,9.13,3.61c3.27.94,6.64,1.71,10,2.43,6.76,1.44,13.61,2.62,20.48,3.69s13.79,1.93,20.69,2.7l-.26,2.72c-7-.58-13.92-1.34-20.88-2.09s-13.9-1.7-20.83-2.88c-3.47-.61-6.94-1.28-10.4-2.15-1.74-.42-3.47-.92-5.21-1.49a31.4,31.4,0,0,1-5.19-2.24,24.91,24.91,0,0,1-4.75-3.35,21.32,21.32,0,0,1-3.79-4.6,19.5,19.5,0,0,1-2.22-5.58,21.23,21.23,0,0,1-.42-3c0-.5,0-1,0-1.52,0-.25,0-.51,0-.77s.05-.48.12-.88Z" transform="translate(-7.61 -141.32)"/></g><g class="a"><path d="M147.08,300a20.3,20.3,0,0,0-2.41,4.88,8,8,0,0,0-.42,4.86,10,10,0,0,0,2.12,4.1,11.19,11.19,0,0,0,1.64,1.66,4,4,0,0,0,1.61.83,16.38,16.38,0,0,0,4.92.5,38.74,38.74,0,0,0,5.51-.53,44.71,44.71,0,0,0,5.54-1.25c1.87-.38,3.74-.87,5.59-1.34l.64,1.52c-1.73,1-3.51,1.81-5.32,2.64-1.86.62-3.71,1.35-5.63,1.9a42,42,0,0,1-5.93,1.42,17.07,17.07,0,0,1-6.62-.14,8.83,8.83,0,0,1-3.52-1.78,13.12,13.12,0,0,1-2.31-2.57,12.1,12.1,0,0,1-2.1-6.57,15.33,15.33,0,0,1,1.5-6.47,16.08,16.08,0,0,1,4-4.72Z" transform="translate(-7.61 -141.32)"/></g><g class="a"><path d="M306.55,249a12,12,0,0,1,2.51-5.36c1.13-1.58,2.33-3.13,3.62-4.64a34.5,34.5,0,0,1,4.37-4.16,32.6,32.6,0,0,1,5.14-3.24c1.78-.93,3.6-1.67,5.4-2.41a26.67,26.67,0,0,1,5.83-1.83c4.16-.71,8.15-.07,11.91.28,1.89.18,3.77.42,5.64.44a34.57,34.57,0,0,0,5.57-.54c1.88-.33,3.77-.66,5.59-1.08a55.4,55.4,0,0,0,5.41-1.56c7.16-2.47,14.21-5.52,21.25-8.47a131,131,0,0,0,19.77-11.2C414.88,201,421,196.44,427,191.75c3-2.34,6-4.75,8.94-7.17a99.18,99.18,0,0,0,8.38-7.6,65.21,65.21,0,0,0,7.19-8.59,52.35,52.35,0,0,0,2.88-4.76c.86-1.66,1.62-3.34,2.45-5.12a20.78,20.78,0,0,1,1.49-2.8,7.82,7.82,0,0,1,2.86-2.68,8.61,8.61,0,0,1,3.75-.92c1-.05,2-.08,3-.07a19.36,19.36,0,0,1,6.5,1,14.22,14.22,0,0,1,5.8,3.95c.39.41.74.83,1.08,1.25s.65.85.95,1.28.61.95.9,1.42.53,1,.79,1.52a20.16,20.16,0,0,1,1.74,6.38,27.51,27.51,0,0,1,0,6.35,35.52,35.52,0,0,1-1.22,6,48.57,48.57,0,0,1-4.82,11,41.53,41.53,0,0,1-3.42,4.95c-.63.78-1.3,1.54-2,2.28-.35.37-.74.73-1.13,1.07l-1.15.93a88,88,0,0,1-9.54,6.74c-3.31,2-6.72,3.83-10.14,5.6-6.84,3.51-13.8,6.74-20.73,10s-13.9,6.4-20.83,9.63L389.82,243c-3.52,1.54-6.94,3.14-10.63,4.57-3.64,1.19-7.12,2.62-10.68,4h0a1.17,1.17,0,0,1-.9-2.15c3.5-1.52,7.07-3.1,10.67-4.39,3.42-1.39,6.92-3.08,10.38-4.67l20.84-9.63c7-3.15,14-6.3,21-9.34s14-6.18,20.8-9.6,13.36-7.34,18.8-12.49l1-1c.3-.32.6-.63.88-1a18.27,18.27,0,0,0,1.58-2.17,39.16,39.16,0,0,0,2.59-4.83,47.31,47.31,0,0,0,3.25-10.4,32.33,32.33,0,0,0,.44-10.38,18.39,18.39,0,0,0-1.3-4.64,14.31,14.31,0,0,0-1.15-2,23,23,0,0,0-1.48-2,9.57,9.57,0,0,0-1.61-1.58,8,8,0,0,0-1.81-1.12,15.72,15.72,0,0,0-4.74-1.11c-.88-.09-1.82-.16-2.72-.2a4.36,4.36,0,0,0-1.83.19,3.39,3.39,0,0,0-1.38,1.09,17.06,17.06,0,0,0-1.42,2.15,85.46,85.46,0,0,1-6.15,10,70.84,70.84,0,0,1-7.73,8.83,102.19,102.19,0,0,1-8.79,7.63q-4.51,3.56-9.11,7c-6.11,4.64-12.35,9.13-18.78,13.34a136,136,0,0,1-20.19,11.31c-7.08,2.94-14.1,5.95-21.42,8.46a57.18,57.18,0,0,1-5.62,1.6c-1.92.43-3.8.75-5.7,1.08s-3.89.48-5.83.65-3.91.32-5.84.35a51.49,51.49,0,0,0-11,1,32.34,32.34,0,0,0-5.09,1.61c-1.76.67-3.48,1.39-5.14,2.14a33.42,33.42,0,0,0-8.94,6c-1.36,1.25-2.69,2.58-4,4A14,14,0,0,1,306.55,249Z" transform="translate(-7.61 -141.32)"/></g><g class="a"><path d="M429.05,197.5q-8.76,7-17.65,13.88c-5.93,4.58-11.92,9.08-18,13.43a175.87,175.87,0,0,1-19,12.22,65.34,65.34,0,0,1-10.52,4.51,56.62,56.62,0,0,1-5.59,1.45l-5.56,1c-7.42,1.28-14.59,2.93-21,5.91a54.81,54.81,0,0,0-9.17,5.41,43,43,0,0,0-7.68,7.34,69.87,69.87,0,0,0-10.41,19c-2.6,6.9-4.9,14-7.3,21.14a.57.57,0,0,1-.74.37.59.59,0,0,1-.39-.68v0q1.23-5.49,2.54-11c.44-1.83.88-3.65,1.36-5.47s1-3.63,1.6-5.43a88.53,88.53,0,0,1,4-10.68,52.77,52.77,0,0,1,5.94-9.95,48.59,48.59,0,0,1,18.16-14.6,38.83,38.83,0,0,1,5.57-2c1.9-.49,3.8-.9,5.7-1.21s3.8-.51,5.68-.73l5.58-.68c1.86-.21,3.68-.54,5.51-.83a53.65,53.65,0,0,0,5.31-1.21,63,63,0,0,0,10.2-4,173.93,173.93,0,0,0,19.08-11.49q9.31-6.22,18.36-12.86t17.88-13.55a.4.4,0,0,1,.49.63Z" transform="translate(-7.61 -141.32)"/></g><g class="a"><path d="M364.42,238.77a8.07,8.07,0,0,1,4.09,3.93,11.46,11.46,0,0,1,1.14,5.6,12.38,12.38,0,0,1-.5,2.78,17.52,17.52,0,0,1-.85,2.66,22.11,22.11,0,0,1-11.24,11.77A40.75,40.75,0,0,1,346.9,269c-3.56.68-6.86.95-10.22,1.44s-6.7.93-10.06,1.47-6.81,1-10.24,1.33-6.85.36-10.26.45l-.13-2.38c3.38-.3,6.75-.65,10.08-1.06s6.61-1,9.94-1.69,6.69-1.37,10.05-2,6.83-1.09,9.93-1.8a37.56,37.56,0,0,0,9-3.22,31.74,31.74,0,0,0,4-2.48,24.83,24.83,0,0,0,3.53-3,16.81,16.81,0,0,0,2.76-3.71,15.19,15.19,0,0,0,.95-2.1,17.51,17.51,0,0,0,.46-2.22,8.82,8.82,0,0,0-.34-4.39,6.56,6.56,0,0,0-2.69-3.41Z" transform="translate(-7.61 -141.32)"/></g><g class="a"><path d="M345.05,267.5c.34-.79.57-.73.79-.71l.69,0c.45.06.91.13,1.37.23a10.39,10.39,0,0,1,2.65,1,11.31,11.31,0,0,1,4.23,4,7.32,7.32,0,0,1,.68,1.3l.5,1.38a15.82,15.82,0,0,1,.79,2.81,17.56,17.56,0,0,1,.14,5.88,15.13,15.13,0,0,1-2,5.61,16.93,16.93,0,0,1-4.16,4.5c-.41.32-.86.59-1.3.88s-.93.54-1.37.73a27.1,27.1,0,0,1-2.65,1.06,32.11,32.11,0,0,1-5.4,1.36c-7.24,1.21-14.33.63-21.26-.23a139.46,139.46,0,0,1-20.45-4.21l.59-2.2c3.3.71,6.7,1.25,10.06,1.74s6.77.81,10.15,1A73.71,73.71,0,0,0,339,292.39a31.44,31.44,0,0,0,4.54-1.36,20.83,20.83,0,0,0,2.1-.92c.36-.16.6-.33.91-.49s.57-.36.83-.58a12.21,12.21,0,0,0,2.79-3.06,22.82,22.82,0,0,0,2.07-3.81,12.9,12.9,0,0,0,1.05-4.35,9.41,9.41,0,0,0-.16-2.25,10.67,10.67,0,0,0-.86-2.06,8.47,8.47,0,0,0-3-3.28,16.44,16.44,0,0,0-2-1.14l-1.11-.46-.58-.19C345.34,268.39,345.15,268.37,345.05,267.5Z" transform="translate(-7.61 -141.32)"/></g><g class="a"><path d="M317.39,295.53a28.6,28.6,0,0,1,4.78,7.62,31.59,31.59,0,0,1,1.23,4.49,17.72,17.72,0,0,1,.19,4.78,14.88,14.88,0,0,1-4,8.88,12.75,12.75,0,0,1-4.06,2.92,13.42,13.42,0,0,1-4.86,1.09,15.83,15.83,0,0,1-4.87-.57,20.91,20.91,0,0,1-4.26-1.84,49.65,49.65,0,0,1-7.3-5.07c-2.26-1.87-4.42-3.85-6.47-5.91s-3.91-4.3-5.75-6.59l2-1.66c1.85,2.11,3.85,4.17,5.88,6.14s4,4,6.18,5.79a41.29,41.29,0,0,0,6.81,4.79,17.6,17.6,0,0,0,3.68,1.48,7.48,7.48,0,0,0,3.67,0,10.66,10.66,0,0,0,3.32-1.47,15.93,15.93,0,0,0,2.81-2.23A13,13,0,0,0,320.14,308a13.74,13.74,0,0,0-.79-3.87,29,29,0,0,0-3.63-7.36Z" transform="translate(-7.61 -141.32)"/></g><g class="a"><path d="M300.15,319.4a21.43,21.43,0,0,1,.14,5.12,18.88,18.88,0,0,1-1.39,5.16,9,9,0,0,1-4,4.35,9.14,9.14,0,0,1-1.41.58c-.44.13-.87.27-1.32.36a13.08,13.08,0,0,1-2.81.31,11,11,0,0,1-2.89-.37,10.44,10.44,0,0,1-2.7-1.16A10.6,10.6,0,0,1,281.5,332a13.34,13.34,0,0,1-1.72-2.14,22,22,0,0,1-2.31-4.67,22.89,22.89,0,0,1-1-5l2.11-.32a28.1,28.1,0,0,0,1.66,4.21,14.65,14.65,0,0,0,2.27,3.74,9.3,9.3,0,0,0,3.12,2.45,7.93,7.93,0,0,0,3.64.71,12,12,0,0,0,1.95-.23c.34-.06.67-.17,1-.23a5.55,5.55,0,0,0,.84-.26,5.89,5.89,0,0,0,2.74-2.23,10.14,10.14,0,0,0,1.53-3.95,22.35,22.35,0,0,0,.59-4.45Z" transform="translate(-7.61 -141.32)"/></g><g class="a"><path d="M454.84,211.25a15.21,15.21,0,0,1,1,2.06,16.65,16.65,0,0,1,.76,2.08,21.48,21.48,0,0,1,.91,4.37,19.41,19.41,0,0,1-1.17,9,18.82,18.82,0,0,1-2.14,4.07,22.19,22.19,0,0,1-2.91,3.48,30,30,0,0,1-7.17,5.09l-3.83,1.78c-1.27.59-2.56,1.05-3.83,1.58-2.56,1.07-5.15,1.93-7.72,2.9L421,250.33l-7.78,2.52c-10.4,3.28-20.85,6.35-31.33,9.32l-15.72,4.4c-5.29,1.3-10.57,2.61-15.89,3.82l-.48-1.78,15.55-4.92c5.23-1.48,10.43-3.07,15.63-4.63,10.4-3.16,20.76-6.4,31.05-9.85l7.69-2.64,7.63-2.77c2.5-1,5.06-1.89,7.5-3,1.23-.53,2.49-1,3.68-1.59l3.54-1.73c4.47-2.4,8.28-5.91,9.81-10.4a19.23,19.23,0,0,0,1-7,25.7,25.7,0,0,0-.39-3.67,28.34,28.34,0,0,0-.88-3.55Z" transform="translate(-7.61 -141.32)"/></g><g class="a"><path d="M413.77,249.79c.6,3.19,2.09,6.09,2.44,9.87a10,10,0,0,1-1.17,5.8,11.87,11.87,0,0,1-4,4,9.18,9.18,0,0,1-1.12.69l-1.13.63a21.8,21.8,0,0,1-2.25,1.16c-1.52.66-3,1.34-4.58,1.85-.76.28-1.53.56-2.3.81l-2.32.68c-1.54.47-3.09.87-4.64,1.25-6.2,1.56-12.46,2.61-18.71,3.64-1.56.26-3.12.47-4.69.71s-3.13.39-4.68.69c-3.11.59-6.21,1.15-9.36,1.65l-.44-3.52c3.09-.31,6.21-.69,9.32-1.1s6.14-1.21,9.19-1.88c6.11-1.35,12.15-3,18.05-4.85,1.48-.46,2.95-.93,4.39-1.46l2.16-.78,2.12-.85a44.8,44.8,0,0,0,7.84-3.91,16.92,16.92,0,0,0,2.78-2.43,6.86,6.86,0,0,0,1.83-3,7.86,7.86,0,0,0-.21-4.14,14.26,14.26,0,0,0-2-4.12Z" transform="translate(-7.61 -141.32)"/></g><g class="a"><path d="M394.73,274.34c.06.4.08.6.11.88s0,.52,0,.77c0,.51,0,1,0,1.52a21.23,21.23,0,0,1-.42,3,19.52,19.52,0,0,1-2.23,5.58,21.28,21.28,0,0,1-3.78,4.6,25.29,25.29,0,0,1-4.76,3.35,31.67,31.67,0,0,1-5.18,2.24c-1.75.57-3.48,1.07-5.21,1.49-3.47.87-6.93,1.54-10.4,2.15C356,301.07,349,302,342.06,302.77s-13.9,1.51-20.88,2.09l-.25-2.72c6.9-.77,13.82-1.62,20.69-2.7s13.72-2.25,20.48-3.69c3.38-.72,6.74-1.49,10-2.43a39.07,39.07,0,0,0,9.13-3.61,17,17,0,0,0,6.41-6.34,15.7,15.7,0,0,0,1.64-4.1,14.8,14.8,0,0,0,.4-2.19,10.22,10.22,0,0,0,.1-1.1l0-1Z" transform="translate(-7.61 -141.32)"/></g><g class="a"><path d="M347.64,299a16.05,16.05,0,0,1,4,4.72,15,15,0,0,1,1.5,6.47,12,12,0,0,1-2.1,6.57,13.12,13.12,0,0,1-2.31,2.57,8.77,8.77,0,0,1-3.52,1.78,17,17,0,0,1-6.61.14,41.71,41.71,0,0,1-5.93-1.42c-1.93-.55-3.77-1.28-5.64-1.9-1.81-.83-3.58-1.64-5.31-2.64l.63-1.52c1.85.47,3.72,1,5.6,1.34a44.56,44.56,0,0,0,5.53,1.25,39,39,0,0,0,5.51.53,16.38,16.38,0,0,0,4.92-.5,4.12,4.12,0,0,0,1.62-.83,12.25,12.25,0,0,0,1.64-1.66,10.1,10.1,0,0,0,2.11-4.1,8,8,0,0,0-.41-4.86,20.35,20.35,0,0,0-2.42-4.88Z" transform="translate(-7.61 -141.32)"/></g><path class="c" d="M173.38,202.1,248,384.57h-2l75.36-184.21,9.26,4L248,385.43a1.08,1.08,0,0,1-1.44.54,1.05,1.05,0,0,1-.54-.54L164.13,206.11Z" transform="translate(-7.61 -141.32)"/><path class="b" d="M326,204" transform="translate(-7.61 -141.32)"/><path class="b" d="M169,204" transform="translate(-7.61 -141.32)"/><path class="c" d="M157.78,160.18A184.44,184.44,0,0,1,205.61,145a222.1,222.1,0,0,1,24.88-3.07,240.06,240.06,0,0,1,25-.4l3.13.07,1.56,0,1.56.11,6.25.47c4.17.21,8.31.88,12.46,1.35,2.08.22,4.13.62,6.2,1l6.18,1.08L299,147l3.07.69,3,.83a166.11,166.11,0,0,1,23.82,8.16c2,.79,3.85,1.71,5.76,2.62s3.77,1.9,5.65,2.87c.94.48,1.85,1,2.77,1.56s1.85,1.06,2.75,1.64,1.82,1.13,2.71,1.75c.45.31.89.59,1.35.93s.87.62,1.4,1h0l.14.11a3.44,3.44,0,0,1,.94,4.21l-16.85,34h0a1.79,1.79,0,0,1-2.35.83,114.53,114.53,0,0,0-20.61-6.93A205.89,205.89,0,0,0,291,197.1a318.05,318.05,0,0,0-43.86-2.92l-11,.13c-3.67.17-7.33.3-11,.51-7.31.54-14.62,1.18-21.86,2.25a191,191,0,0,0-21.51,4.21l-5.27,1.44c-1.73.56-3.49,1.05-5.2,1.67l-2.56.91-2.53,1c-1.64.69-3.38,1.42-4.83,2.21l-.13.07-.08,0-.26.1h0a1.75,1.75,0,0,1-2.22-.84l0,0-17.05-34.47h0a3.47,3.47,0,0,1,1-4.28l.12-.08c.7-.53,1.26-.92,1.89-1.34s1.22-.81,1.83-1.2c1.23-.78,2.47-1.53,3.71-2.25Q153.94,162.07,157.78,160.18Zm3.23,6.58c-2.43,1.2-4.82,2.47-7.15,3.81-1.17.67-2.32,1.36-3.44,2.07-.56.36-1.12.72-1.66,1.09s-1.11.77-1.52,1.07l1.13-4.35h0l13.44,36-2.24-.89h0l.26-.12-.21.11A67.26,67.26,0,0,1,170,200.72c1.75-.71,3.54-1.28,5.3-1.93l5.37-1.69a188.1,188.1,0,0,1,21.92-4.84,281.4,281.4,0,0,1,44.6-3.41c3.73,0,7.45.08,11.18.21l5.59.27,2.79.14,2.79.22,5.58.43,5.57.59c1.86.19,3.71.4,5.56.68s3.7.52,5.54.82A208.49,208.49,0,0,1,313.69,197c3.61,1,7.17,2.21,10.69,3.52a77.55,77.55,0,0,1,10.36,4.63l-2.35.84h0l13.24-35.56,1.07,4.31h0c-.28-.23-.71-.53-1.08-.8s-.8-.54-1.19-.82c-.8-.55-1.64-1.07-2.48-1.59s-1.68-1-2.54-1.52-1.71-1-2.6-1.46c-1.78-.92-3.51-1.89-5.34-2.72s-3.61-1.73-5.47-2.48a158.15,158.15,0,0,0-22.81-7.82l-2.92-.8-2.95-.66-5.91-1.32-6-1c-2-.34-4-.73-6-.93-4-.46-8-1.11-12.06-1.32l-6-.45-1.52-.11-1.51,0-3-.07a231.54,231.54,0,0,0-24.29.39,215.81,215.81,0,0,0-24.07,3A177.4,177.4,0,0,0,161,166.76Z" transform="translate(-7.61 -141.32)"/><path class="c" d="M187,242a13.84,13.84,0,0,1-4.54-3.7q-1.92-2.1-4-4a33.57,33.57,0,0,0-8.94-6c-1.67-.75-3.39-1.47-5.14-2.14a32.78,32.78,0,0,0-5.1-1.61,51.45,51.45,0,0,0-11-1c-1.94,0-3.89-.18-5.84-.35s-3.91-.31-5.84-.65-3.78-.65-5.69-1.08a55.65,55.65,0,0,1-5.62-1.6c-7.32-2.51-14.35-5.52-21.43-8.46a135.86,135.86,0,0,1-20.18-11.31c-6.44-4.21-12.67-8.7-18.79-13.34-3.05-2.32-6.1-4.66-9.11-7a102.19,102.19,0,0,1-8.79-7.63,71.6,71.6,0,0,1-7.72-8.83,86.94,86.94,0,0,1-6.16-10,17.06,17.06,0,0,0-1.42-2.15,3.27,3.27,0,0,0-1.38-1.09,4.34,4.34,0,0,0-1.83-.19c-.9,0-1.83.11-2.72.2a15.73,15.73,0,0,0-4.73,1.11,7.89,7.89,0,0,0-1.82,1.12,9.53,9.53,0,0,0-1.6,1.58,21.16,21.16,0,0,0-1.48,2A15.43,15.43,0,0,0,15,158a18.39,18.39,0,0,0-1.3,4.64A32.91,32.91,0,0,0,14.17,173a47.33,47.33,0,0,0,3.26,10.4A37.81,37.81,0,0,0,20,188.2a19.46,19.46,0,0,0,1.58,2.17c.28.35.58.66.88,1l1,1c5.44,5.15,12,9,18.8,12.49s13.79,6.53,20.8,9.6,14,6.19,21,9.34l20.84,9.63c3.46,1.59,7,3.28,10.39,4.67,3.6,1.29,7.16,2.87,10.66,4.39a1.16,1.16,0,0,1-.89,2.15h0c-3.57-1.43-7-2.86-10.68-4-3.7-1.43-7.12-3-10.64-4.57l-20.91-9.49c-6.94-3.23-13.91-6.36-20.84-9.63s-13.88-6.5-20.73-10c-3.42-1.77-6.82-3.58-10.13-5.6a87.12,87.12,0,0,1-9.55-6.74l-1.14-.93c-.4-.34-.78-.7-1.14-1.07-.72-.74-1.39-1.5-2-2.28a40.31,40.31,0,0,1-3.41-4.95,48.16,48.16,0,0,1-4.83-11,35.5,35.5,0,0,1-1.21-6,27,27,0,0,1,0-6.35,20.7,20.7,0,0,1,1.74-6.38c.26-.51.5-1,.79-1.52s.6-1,.9-1.42.6-.86,1-1.28.69-.84,1.08-1.25A14.19,14.19,0,0,1,19.05,146a19.36,19.36,0,0,1,6.5-1c1,0,2,0,3,.07a8.61,8.61,0,0,1,3.75.92,7.75,7.75,0,0,1,2.86,2.68,20.78,20.78,0,0,1,1.49,2.8c.83,1.78,1.59,3.46,2.45,5.12A52.45,52.45,0,0,0,42,161.39,65.13,65.13,0,0,0,49.19,170a100.89,100.89,0,0,0,8.39,7.6c3,2.42,5.92,4.83,8.93,7.17,6,4.69,12.16,9.23,18.48,13.48a131.08,131.08,0,0,0,19.78,11.2c7,2.95,14.09,6,21.24,8.47a55.58,55.58,0,0,0,5.42,1.56c1.82.42,3.71.75,5.58,1.08a34.68,34.68,0,0,0,5.57.54c1.88,0,3.75-.26,5.64-.44,3.76-.35,7.75-1,11.91-.28a26.76,26.76,0,0,1,5.84,1.83c1.8.74,3.62,1.48,5.39,2.41a32.15,32.15,0,0,1,5.14,3.24,34.59,34.59,0,0,1,4.38,4.16c1.28,1.51,2.49,3.06,3.61,4.64A11.94,11.94,0,0,1,187,242Z" transform="translate(-7.61 -141.32)"/><path class="c" d="M64.5,190.5q9,6.76,18,13.37T101,216.58a171.81,171.81,0,0,0,19.2,11.35,63.58,63.58,0,0,0,10.26,3.93,51.5,51.5,0,0,0,5.32,1.16c1.84.29,3.67.58,5.52.8l5.59.67c1.88.23,3.77.45,5.67.76s3.8.73,5.69,1.23a40.06,40.06,0,0,1,5.56,2,48.45,48.45,0,0,1,18.41,14.36c4.9,6.19,8,13.4,10.4,20.58.61,1.8,1.16,3.61,1.7,5.42s1,3.63,1.48,5.45l2.8,10.88a.59.59,0,0,1-1.12.36v0c-1.35-3.5-2.57-7.05-3.84-10.57l-1.94-5.26c-.65-1.75-1.3-3.49-2-5.2a71.23,71.23,0,0,0-10.82-19,43.8,43.8,0,0,0-7.83-7.26,54.36,54.36,0,0,0-9.27-5.26,81.46,81.46,0,0,0-21-6l-5.56-1c-1.89-.38-3.77-.85-5.61-1.41a65,65,0,0,1-10.57-4.43A173.11,173.11,0,0,1,100,218.11c-6.15-4.29-12.19-8.75-18.16-13.28S69.9,195.75,64,191.13a.39.39,0,0,1-.07-.56A.41.41,0,0,1,64.5,190.5Z" transform="translate(-7.61 -141.32)"/><path class="c" d="M129.87,233.23a6.53,6.53,0,0,0-2.7,3.41,8.81,8.81,0,0,0-.33,4.39,15.93,15.93,0,0,0,.46,2.22,14,14,0,0,0,.94,2.1,16.86,16.86,0,0,0,2.77,3.71,24.2,24.2,0,0,0,3.52,3,31.86,31.86,0,0,0,4,2.48,37.26,37.26,0,0,0,9,3.22c3.1.71,6.58,1.16,9.92,1.8s6.72,1.3,10,2,6.6,1.32,9.94,1.69,6.71.76,10.09,1.06l-.14,2.38c-3.41-.09-6.83-.18-10.26-.45s-6.88-.77-10.24-1.33-6.7-1-10.05-1.47-6.66-.76-10.23-1.44a40.75,40.75,0,0,1-10.16-3.49,22,22,0,0,1-11.23-11.77,18.76,18.76,0,0,1-.86-2.66,12.37,12.37,0,0,1-.49-2.78,11.34,11.34,0,0,1,1.13-5.6,8.11,8.11,0,0,1,4.09-3.93Z" transform="translate(-7.61 -141.32)"/><path class="c" d="M148.5,260.5c-.09.87-.28.89-.48.94l-.58.19-1.12.46a18,18,0,0,0-2,1.14,8.63,8.63,0,0,0-3,3.28,10.67,10.67,0,0,0-.86,2.06,10,10,0,0,0-.16,2.25,13.15,13.15,0,0,0,1.05,4.35,22.86,22.86,0,0,0,2.08,3.81,12.36,12.36,0,0,0,2.78,3.06c.27.22.56.38.83.58s.55.33.91.49a20.83,20.83,0,0,0,2.1.92,32,32,0,0,0,4.55,1.36,73.71,73.71,0,0,0,19.89,1.28c3.38-.22,6.78-.49,10.14-1s6.77-1,10.07-1.74l.58,2.2a139.46,139.46,0,0,1-20.45,4.21c-6.93.86-14,1.44-21.25.23a31.64,31.64,0,0,1-5.4-1.36,27.27,27.27,0,0,1-2.66-1.06c-.43-.19-.92-.49-1.37-.73s-.89-.56-1.3-.88a16.73,16.73,0,0,1-4.15-4.5,15,15,0,0,1-2-5.61,17.56,17.56,0,0,1,.13-5.88,16.74,16.74,0,0,1,.8-2.81l.49-1.38a7.37,7.37,0,0,1,.69-1.3,11.36,11.36,0,0,1,4.22-4,10.53,10.53,0,0,1,2.65-1c.46-.1.92-.17,1.38-.23l.68,0C147.94,259.77,148.17,259.71,148.5,260.5Z" transform="translate(-7.61 -141.32)"/><path class="c" d="M177.83,289.81a28.93,28.93,0,0,0-3.62,7.36,13.76,13.76,0,0,0-.8,3.87,12.8,12.8,0,0,0,.28,3.82,13,13,0,0,0,3.45,6.35,15.93,15.93,0,0,0,2.81,2.23,10.76,10.76,0,0,0,3.32,1.47,7.48,7.48,0,0,0,3.67,0,17.68,17.68,0,0,0,3.69-1.48,40.8,40.8,0,0,0,6.8-4.79c2.15-1.82,4.19-3.78,6.19-5.79s4-4,5.88-6.14l2,1.66c-1.84,2.29-3.75,4.46-5.75,6.59s-4.2,4-6.46,5.91A49.75,49.75,0,0,1,192,315.9a21.06,21.06,0,0,1-4.25,1.84,15.93,15.93,0,0,1-4.88.57,13.47,13.47,0,0,1-4.86-1.09,12.6,12.6,0,0,1-4.05-2.92,14.89,14.89,0,0,1-4-8.88,18.13,18.13,0,0,1,.19-4.78,31.59,31.59,0,0,1,1.23-4.49,28.63,28.63,0,0,1,4.79-7.62Z" transform="translate(-7.61 -141.32)"/><path class="c" d="M195.59,312.6a23.91,23.91,0,0,0,.59,4.45,10.3,10.3,0,0,0,1.54,3.95,5.8,5.8,0,0,0,2.74,2.23,5.41,5.41,0,0,0,.83.26c.34.06.68.17,1,.23a12.16,12.16,0,0,0,2,.23,7.91,7.91,0,0,0,3.63-.71,9.11,9.11,0,0,0,3.12-2.45,14.38,14.38,0,0,0,2.27-3.74,27.12,27.12,0,0,0,1.67-4.21l2.1.32a21.78,21.78,0,0,1-1,5,22.49,22.49,0,0,1-2.3,4.67,13.4,13.4,0,0,1-1.73,2.14,11,11,0,0,1-4.94,2.93,11.09,11.09,0,0,1-2.9.37,12.92,12.92,0,0,1-2.8-.31,13.43,13.43,0,0,1-1.32-.36,8.84,8.84,0,0,1-1.42-.58,9,9,0,0,1-4-4.35,18.91,18.91,0,0,1-1.4-5.16,21.43,21.43,0,0,1,.15-5.12Z" transform="translate(-7.61 -141.32)"/><path class="c" d="M41.9,205.86a30.18,30.18,0,0,0-.89,3.55,25.67,25.67,0,0,0-.38,3.67,19,19,0,0,0,1,7c1.52,4.49,5.33,8,9.8,10.4L55,232.24c1.19.57,2.46,1.06,3.68,1.59,2.44,1.08,5,2,7.51,3l7.62,2.77,7.7,2.64c10.28,3.45,20.65,6.69,31,9.85,5.21,1.56,10.4,3.15,15.63,4.63l15.55,4.92-.48,1.78c-5.32-1.21-10.6-2.52-15.89-3.82l-15.72-4.4c-10.47-3-20.92-6-31.32-9.32l-7.79-2.52-7.76-2.65c-2.57-1-5.16-1.83-7.71-2.9-1.28-.53-2.56-1-3.84-1.58l-3.82-1.78a29.56,29.56,0,0,1-7.17-5.09,22.25,22.25,0,0,1-2.92-3.48,19.75,19.75,0,0,1-2.14-4.07,19.54,19.54,0,0,1-1.17-9,22.92,22.92,0,0,1,.91-4.37,18.41,18.41,0,0,1,.76-2.08,18,18,0,0,1,1-2.06Z" transform="translate(-7.61 -141.32)"/><path class="c" d="M83.22,244.21a14,14,0,0,0-2,4.12,7.85,7.85,0,0,0-.2,4.14,6.75,6.75,0,0,0,1.82,3,17.34,17.34,0,0,0,2.78,2.43,44.9,44.9,0,0,0,7.85,3.91l2.11.85,2.17.78c1.43.53,2.91,1,4.38,1.46,5.91,1.85,11.94,3.5,18,4.85,3.05.67,6.11,1.37,9.2,1.88s6.22.79,9.31,1.1l-.44,3.52c-3.15-.5-6.24-1.06-9.35-1.65-1.55-.3-3.13-.45-4.69-.69s-3.13-.45-4.69-.71c-6.24-1-12.5-2.08-18.7-3.64-1.55-.38-3.11-.78-4.65-1.25l-2.32-.68c-.77-.25-1.53-.53-2.3-.81-1.54-.51-3-1.19-4.57-1.85a23,23,0,0,1-2.26-1.16l-1.12-.63a8.48,8.48,0,0,1-1.12-.69,11.9,11.9,0,0,1-4-4,10,10,0,0,1-1.17-5.8c.35-3.78,1.84-6.68,2.44-9.87Z" transform="translate(-7.61 -141.32)"/><path class="c" d="M103.73,268l0,1c0,.37.06.73.1,1.1a14.82,14.82,0,0,0,.41,2.19,15.36,15.36,0,0,0,1.64,4.1,17,17,0,0,0,6.4,6.34,39.25,39.25,0,0,0,9.13,3.61c3.27.94,6.64,1.71,10,2.43,6.76,1.44,13.61,2.62,20.48,3.69s13.79,1.93,20.69,2.7l-.26,2.72c-7-.58-13.92-1.34-20.88-2.09s-13.9-1.7-20.83-2.88c-3.47-.61-6.94-1.28-10.4-2.15-1.74-.42-3.47-.92-5.21-1.49a31.4,31.4,0,0,1-5.19-2.24,24.91,24.91,0,0,1-4.75-3.35,21.32,21.32,0,0,1-3.79-4.6,19.5,19.5,0,0,1-2.22-5.58,21.23,21.23,0,0,1-.42-3c0-.5,0-1,0-1.52,0-.25,0-.51,0-.77s.05-.48.12-.88Z" transform="translate(-7.61 -141.32)"/><path class="c" d="M147.08,293a20.3,20.3,0,0,0-2.41,4.88,8,8,0,0,0-.42,4.86,10,10,0,0,0,2.12,4.1,11.19,11.19,0,0,0,1.64,1.66,4,4,0,0,0,1.61.83,16.38,16.38,0,0,0,4.92.5,38.74,38.74,0,0,0,5.51-.53,44.71,44.71,0,0,0,5.54-1.25c1.87-.38,3.74-.87,5.59-1.34l.64,1.52c-1.73,1-3.51,1.81-5.32,2.64-1.86.62-3.71,1.35-5.63,1.9a42,42,0,0,1-5.93,1.42,17.07,17.07,0,0,1-6.62-.14,8.83,8.83,0,0,1-3.52-1.78,13.12,13.12,0,0,1-2.31-2.57,12.1,12.1,0,0,1-2.1-6.57,15.33,15.33,0,0,1,1.5-6.47,16.08,16.08,0,0,1,4-4.72Z" transform="translate(-7.61 -141.32)"/><path class="c" d="M306.55,242a12,12,0,0,1,2.51-5.36c1.13-1.58,2.33-3.13,3.62-4.64a34.5,34.5,0,0,1,4.37-4.16,32.6,32.6,0,0,1,5.14-3.24c1.78-.93,3.6-1.67,5.4-2.41a26.67,26.67,0,0,1,5.83-1.83c4.16-.71,8.15-.07,11.91.28,1.89.18,3.77.42,5.64.44a34.57,34.57,0,0,0,5.57-.54c1.88-.33,3.77-.66,5.59-1.08a55.4,55.4,0,0,0,5.41-1.56c7.16-2.47,14.21-5.52,21.25-8.47a131,131,0,0,0,19.77-11.2C414.88,194,421,189.44,427,184.75c3-2.34,6-4.75,8.94-7.17a99.18,99.18,0,0,0,8.38-7.6,65.21,65.21,0,0,0,7.19-8.59,52.35,52.35,0,0,0,2.88-4.76c.86-1.66,1.62-3.34,2.45-5.12a20.78,20.78,0,0,1,1.49-2.8,7.82,7.82,0,0,1,2.86-2.68,8.61,8.61,0,0,1,3.75-.92c1-.05,2-.08,3-.07a19.36,19.36,0,0,1,6.5,1,14.22,14.22,0,0,1,5.8,3.95c.39.41.74.83,1.08,1.25s.65.85.95,1.28.61.95.9,1.42.53,1,.79,1.52a20.16,20.16,0,0,1,1.74,6.38,27.51,27.51,0,0,1,0,6.35,35.52,35.52,0,0,1-1.22,6,48.57,48.57,0,0,1-4.82,11,41.53,41.53,0,0,1-3.42,4.95c-.63.78-1.3,1.54-2,2.28-.35.37-.74.73-1.13,1.07l-1.15.93a88,88,0,0,1-9.54,6.74c-3.31,2-6.72,3.83-10.14,5.6-6.84,3.51-13.8,6.74-20.73,10s-13.9,6.4-20.83,9.63L389.82,236c-3.52,1.54-6.94,3.14-10.63,4.57-3.64,1.19-7.12,2.62-10.68,4h0a1.17,1.17,0,0,1-.9-2.15c3.5-1.52,7.07-3.1,10.67-4.39,3.42-1.39,6.92-3.08,10.38-4.67l20.84-9.63c7-3.15,14-6.3,21-9.34s14-6.18,20.8-9.6,13.36-7.34,18.8-12.49l1-1c.3-.32.6-.63.88-1a18.27,18.27,0,0,0,1.58-2.17,39.16,39.16,0,0,0,2.59-4.83,47.31,47.31,0,0,0,3.25-10.4,32.33,32.33,0,0,0,.44-10.38,18.39,18.39,0,0,0-1.3-4.64,14.31,14.31,0,0,0-1.15-2,23,23,0,0,0-1.48-2,9.57,9.57,0,0,0-1.61-1.58,8,8,0,0,0-1.81-1.12,15.72,15.72,0,0,0-4.74-1.11c-.88-.09-1.82-.16-2.72-.2a4.36,4.36,0,0,0-1.83.19,3.39,3.39,0,0,0-1.38,1.09,17.06,17.06,0,0,0-1.42,2.15,85.46,85.46,0,0,1-6.15,10,70.84,70.84,0,0,1-7.73,8.83,102.19,102.19,0,0,1-8.79,7.63q-4.51,3.56-9.11,7c-6.11,4.64-12.35,9.13-18.78,13.34a136,136,0,0,1-20.19,11.31c-7.08,2.94-14.1,5.95-21.42,8.46a57.18,57.18,0,0,1-5.62,1.6c-1.92.43-3.8.75-5.7,1.08s-3.89.48-5.83.65-3.91.32-5.84.35a51.49,51.49,0,0,0-11,1,32.34,32.34,0,0,0-5.09,1.61c-1.76.67-3.48,1.39-5.14,2.14a33.42,33.42,0,0,0-8.94,6c-1.36,1.25-2.69,2.58-4,4A14,14,0,0,1,306.55,242Z" transform="translate(-7.61 -141.32)"/><path class="c" d="M429.05,190.5q-8.76,7-17.65,13.88c-5.93,4.58-11.92,9.08-18,13.43a175.87,175.87,0,0,1-19,12.22,65.34,65.34,0,0,1-10.52,4.51,56.62,56.62,0,0,1-5.59,1.45l-5.56,1c-7.42,1.28-14.59,2.93-21,5.91a54.81,54.81,0,0,0-9.17,5.41,43,43,0,0,0-7.68,7.34,69.87,69.87,0,0,0-10.41,19c-2.6,6.9-4.9,14-7.3,21.14a.57.57,0,0,1-.74.37.59.59,0,0,1-.39-.68v0q1.23-5.49,2.54-11c.44-1.83.88-3.65,1.36-5.47s1-3.63,1.6-5.43a88.53,88.53,0,0,1,4-10.68,52.77,52.77,0,0,1,5.94-9.95,48.59,48.59,0,0,1,18.16-14.6,38.83,38.83,0,0,1,5.57-2c1.9-.49,3.8-.9,5.7-1.21s3.8-.51,5.68-.73l5.58-.68c1.86-.21,3.68-.54,5.51-.83a53.65,53.65,0,0,0,5.31-1.21,63,63,0,0,0,10.2-4,173.93,173.93,0,0,0,19.08-11.49q9.31-6.22,18.36-12.86t17.88-13.55a.4.4,0,0,1,.49.63Z" transform="translate(-7.61 -141.32)"/><path class="c" d="M364.42,231.77a8.07,8.07,0,0,1,4.09,3.93,11.46,11.46,0,0,1,1.14,5.6,12.38,12.38,0,0,1-.5,2.78,17.52,17.52,0,0,1-.85,2.66,22.11,22.11,0,0,1-11.24,11.77A40.75,40.75,0,0,1,346.9,262c-3.56.68-6.86.95-10.22,1.44s-6.7.93-10.06,1.47-6.81,1-10.24,1.33-6.85.36-10.26.45l-.13-2.38c3.38-.3,6.75-.65,10.08-1.06s6.61-1,9.94-1.69,6.69-1.37,10.05-2,6.83-1.09,9.93-1.8a37.56,37.56,0,0,0,9-3.22,31.74,31.74,0,0,0,4-2.48,24.83,24.83,0,0,0,3.53-3,16.81,16.81,0,0,0,2.76-3.71,15.19,15.19,0,0,0,.95-2.1,17.51,17.51,0,0,0,.46-2.22,8.82,8.82,0,0,0-.34-4.39,6.56,6.56,0,0,0-2.69-3.41Z" transform="translate(-7.61 -141.32)"/><path class="c" d="M345.05,260.5c.34-.79.57-.73.79-.71l.69,0c.45.06.91.13,1.37.23a10.39,10.39,0,0,1,2.65,1,11.31,11.31,0,0,1,4.23,4,7.32,7.32,0,0,1,.68,1.3l.5,1.38a15.82,15.82,0,0,1,.79,2.81,17.56,17.56,0,0,1,.14,5.88,15.13,15.13,0,0,1-2,5.61,16.93,16.93,0,0,1-4.16,4.5c-.41.32-.86.59-1.3.88s-.93.54-1.37.73a27.1,27.1,0,0,1-2.65,1.06,32.11,32.11,0,0,1-5.4,1.36c-7.24,1.21-14.33.63-21.26-.23a139.46,139.46,0,0,1-20.45-4.21l.59-2.2c3.3.71,6.7,1.25,10.06,1.74s6.77.81,10.15,1A73.71,73.71,0,0,0,339,285.39a31.44,31.44,0,0,0,4.54-1.36,20.83,20.83,0,0,0,2.1-.92c.36-.16.6-.33.91-.49s.57-.36.83-.58a12.21,12.21,0,0,0,2.79-3.06,22.82,22.82,0,0,0,2.07-3.81,12.9,12.9,0,0,0,1.05-4.35,9.41,9.41,0,0,0-.16-2.25,10.67,10.67,0,0,0-.86-2.06,8.47,8.47,0,0,0-3-3.28,16.44,16.44,0,0,0-2-1.14l-1.11-.46-.58-.19C345.34,261.39,345.15,261.37,345.05,260.5Z" transform="translate(-7.61 -141.32)"/><path class="c" d="M317.39,288.53a28.6,28.6,0,0,1,4.78,7.62,31.59,31.59,0,0,1,1.23,4.49,17.72,17.72,0,0,1,.19,4.78,14.88,14.88,0,0,1-4,8.88,12.75,12.75,0,0,1-4.06,2.92,13.42,13.42,0,0,1-4.86,1.09,15.83,15.83,0,0,1-4.87-.57,20.91,20.91,0,0,1-4.26-1.84,49.65,49.65,0,0,1-7.3-5.07c-2.26-1.87-4.42-3.85-6.47-5.91s-3.91-4.3-5.75-6.59l2-1.66c1.85,2.11,3.85,4.17,5.88,6.14s4,4,6.18,5.79a41.29,41.29,0,0,0,6.81,4.79,17.6,17.6,0,0,0,3.68,1.48,7.48,7.48,0,0,0,3.67,0,10.66,10.66,0,0,0,3.32-1.47,15.93,15.93,0,0,0,2.81-2.23A13,13,0,0,0,320.14,301a13.74,13.74,0,0,0-.79-3.87,29,29,0,0,0-3.63-7.36Z" transform="translate(-7.61 -141.32)"/><path class="c" d="M300.15,312.4a21.43,21.43,0,0,1,.14,5.12,18.88,18.88,0,0,1-1.39,5.16,9,9,0,0,1-4,4.35,9.14,9.14,0,0,1-1.41.58c-.44.13-.87.27-1.32.36a13.08,13.08,0,0,1-2.81.31,11,11,0,0,1-2.89-.37,10.44,10.44,0,0,1-2.7-1.16A10.6,10.6,0,0,1,281.5,325a13.34,13.34,0,0,1-1.72-2.14,22,22,0,0,1-2.31-4.67,22.89,22.89,0,0,1-1-5l2.11-.32a28.1,28.1,0,0,0,1.66,4.21,14.65,14.65,0,0,0,2.27,3.74,9.3,9.3,0,0,0,3.12,2.45,7.93,7.93,0,0,0,3.64.71,12,12,0,0,0,1.95-.23c.34-.06.67-.17,1-.23a5.55,5.55,0,0,0,.84-.26,5.89,5.89,0,0,0,2.74-2.23,10.14,10.14,0,0,0,1.53-3.95,22.35,22.35,0,0,0,.59-4.45Z" transform="translate(-7.61 -141.32)"/><path class="c" d="M454.84,204.25a15.21,15.21,0,0,1,1,2.06,16.65,16.65,0,0,1,.76,2.08,21.48,21.48,0,0,1,.91,4.37,19.41,19.41,0,0,1-1.17,9,18.82,18.82,0,0,1-2.14,4.07,22.19,22.19,0,0,1-2.91,3.48,30,30,0,0,1-7.17,5.09l-3.83,1.78c-1.27.59-2.56,1.05-3.83,1.58-2.56,1.07-5.15,1.93-7.72,2.9L421,243.33l-7.78,2.52c-10.4,3.28-20.85,6.35-31.33,9.32l-15.72,4.4c-5.29,1.3-10.57,2.61-15.89,3.82l-.48-1.78,15.55-4.92c5.23-1.48,10.43-3.07,15.63-4.63,10.4-3.16,20.76-6.4,31.05-9.85l7.69-2.64,7.63-2.77c2.5-1,5.06-1.89,7.5-3,1.23-.53,2.49-1,3.68-1.59l3.54-1.73c4.47-2.4,8.28-5.91,9.81-10.4a19.23,19.23,0,0,0,1-7,25.7,25.7,0,0,0-.39-3.67,28.34,28.34,0,0,0-.88-3.55Z" transform="translate(-7.61 -141.32)"/><path class="c" d="M413.77,242.79c.6,3.19,2.09,6.09,2.44,9.87a10,10,0,0,1-1.17,5.8,11.87,11.87,0,0,1-4,4,9.18,9.18,0,0,1-1.12.69l-1.13.63a21.8,21.8,0,0,1-2.25,1.16c-1.52.66-3,1.34-4.58,1.85-.76.28-1.53.56-2.3.81l-2.32.68c-1.54.47-3.09.87-4.64,1.25-6.2,1.56-12.46,2.61-18.71,3.64-1.56.26-3.12.47-4.69.71s-3.13.39-4.68.69c-3.11.59-6.21,1.15-9.36,1.65l-.44-3.52c3.09-.31,6.21-.69,9.32-1.1s6.14-1.21,9.19-1.88c6.11-1.35,12.15-3,18.05-4.85,1.48-.46,2.95-.93,4.39-1.46l2.16-.78,2.12-.85a44.8,44.8,0,0,0,7.84-3.91,16.92,16.92,0,0,0,2.78-2.43,6.86,6.86,0,0,0,1.83-3,7.86,7.86,0,0,0-.21-4.14,14.26,14.26,0,0,0-2-4.12Z" transform="translate(-7.61 -141.32)"/><path class="c" d="M394.73,267.34c.06.4.08.6.11.88s0,.52,0,.77c0,.51,0,1,0,1.52a21.23,21.23,0,0,1-.42,3,19.52,19.52,0,0,1-2.23,5.58,21.28,21.28,0,0,1-3.78,4.6,25.29,25.29,0,0,1-4.76,3.35,31.67,31.67,0,0,1-5.18,2.24c-1.75.57-3.48,1.07-5.21,1.49-3.47.87-6.93,1.54-10.4,2.15C356,294.07,349,295,342.06,295.77s-13.9,1.51-20.88,2.09l-.25-2.72c6.9-.77,13.82-1.62,20.69-2.7s13.72-2.25,20.48-3.69c3.38-.72,6.74-1.49,10-2.43a39.07,39.07,0,0,0,9.13-3.61,17,17,0,0,0,6.41-6.34,15.7,15.7,0,0,0,1.64-4.1,14.8,14.8,0,0,0,.4-2.19,10.22,10.22,0,0,0,.1-1.1l0-1Z" transform="translate(-7.61 -141.32)"/><path class="c" d="M347.64,292a16.05,16.05,0,0,1,4,4.72,15,15,0,0,1,1.5,6.47,12,12,0,0,1-2.1,6.57,13.12,13.12,0,0,1-2.31,2.57,8.77,8.77,0,0,1-3.52,1.78,17,17,0,0,1-6.61.14,41.71,41.71,0,0,1-5.93-1.42c-1.93-.55-3.77-1.28-5.64-1.9-1.81-.83-3.58-1.64-5.31-2.64l.63-1.52c1.85.47,3.72,1,5.6,1.34a44.56,44.56,0,0,0,5.53,1.25,39,39,0,0,0,5.51.53,16.38,16.38,0,0,0,4.92-.5,4.12,4.12,0,0,0,1.62-.83,12.25,12.25,0,0,0,1.64-1.66,10.1,10.1,0,0,0,2.11-4.1,8,8,0,0,0-.41-4.86,20.35,20.35,0,0,0-2.42-4.88Z" transform="translate(-7.61 -141.32)"/></svg>